<svg width="600" height="460" fill="none" xmlns="http://www.w3.org/2000/svg"><rect x=".5" y=".5" width="599" height="459" rx="39.5" fill="#e9ebfb" stroke="#fff"/><path d="M84.1 266v-8.4l-3.3 6.3h-1.4l-3.2-6.3v8.4h-2.5v-12.8h2.6l3.8 7.3 3.8-7.3h2.7V266H84zm5-10.7v-2.4h2.3v2.4H89zm0 10.7v-9.4h2.3v9.4H89zm13.3 0H100v-5.3c0-.7-.2-1.3-.4-1.6-.3-.4-.7-.6-1.1-.6-.4 0-.7.1-1 .3a3 3 0 00-1.5 1.7v5.5h-2.4v-9.4h2.2v1.7c.3-.6.8-1 1.5-1.4.7-.3 1.4-.5 2.2-.5.6 0 1.1.1 1.5.3.3.2.6.5.8.9.2.3.4.7.4 1.2l.2 1.3v5.9zm6.5.2a4.8 4.8 0 01-4.4-2.5 5 5 0 010-4.8c.4-.8 1-1.4 1.7-1.8a5 5 0 012.6-.7c1 0 2 .2 2.7.7.7.4 1.3 1 1.6 1.7l-2.3.7a2 2 0 00-2-1c-.4 0-.9 0-1.2.3-.4.2-.7.6-1 1l-.2 1.5c0 .5 0 1 .3 1.5.2.4.5.7.9 1l1.2.3c.5 0 .9 0 1.2-.3.4-.2.6-.5.8-.8l2.3.7a4 4 0 01-1.6 1.8 5 5 0 01-2.6.7zm10 0a4.7 4.7 0 01-5-4.8c0-1 .2-1.8.6-2.5.5-.8 1-1.4 1.8-1.8a5 5 0 012.6-.7c1 0 2 .2 2.7.7a5 5 0 012.2 5h-7.3a2.5 2.5 0 002.5 2.3c.5 0 1-.1 1.4-.3.4-.3.7-.6.8-1l2.1.6c-.3.7-.9 1.3-1.7 1.8-.7.5-1.6.7-2.7.7zm-2.4-5.7h4.9c0-.7-.4-1.3-.8-1.7-.5-.4-1-.6-1.7-.6-.6 0-1.2.2-1.7.6-.4.4-.7 1-.7 1.7zm13.6.7V253h2.4v8h-2.4zm0 4.8v-2.7h2.4v2.7h-2.4zm9.9 0v-12.8h1.3V266H140zm4.3-13.1h1.2v11c0 .4 0 .8.2.9l.6.2h.7l.6-.2.2 1a4.7 4.7 0 01-1.7.3c-.6 0-1-.2-1.4-.5-.3-.3-.4-.7-.4-1.3v-11.4zM161 266h-1.2v-5.2c0-1.1-.2-2-.5-2.4-.3-.6-.8-.8-1.5-.8a3 3 0 00-1.4.3 4 4 0 00-1.3 1c-.3.4-.6.8-.7 1.4v5.7h-1.2v-9.4h1v2.1c.4-.6 1-1.2 1.7-1.6.7-.4 1.5-.6 2.3-.6.7 0 1.3.1 1.7.5.4.3.7.8.9 1.4l.2 2.1v5.5zm1.6-9.4l.3-1.9h-.4v-1.8h1.2v1.8l-.5 2h-.6zM166 269a6.8 6.8 0 00.8 0c.2 0 .3-.1.4-.3l.5-.8.8-1.8-4.1-9.4h1.3l3.4 8.1 3.2-8h1.2l-4.9 12c-.1.4-.3.7-.6 1a2 2 0 01-1.3.3h-.7v-1.1zm12.5-5.6c0-.6.2-1 .5-1.5.4-.4.8-.8 1.4-1 .6-.2 1.3-.4 2.1-.4a8.5 8.5 0 012.7.5v-.8c0-.8-.2-1.4-.7-2-.4-.4-1-.6-1.9-.6a4 4 0 00-1.5.3 7 7 0 00-1.5.8l-.5-.9 1.8-1 1.8-.2c1.2 0 2 .3 2.8 1 .6.6 1 1.5 1 2.7v4.3c0 .3.1.5.4.5v1h-.5c-.3 0-.6 0-.7-.3a1 1 0 01-.3-.5v-.7c-.4.5-1 1-1.6 1.2-.7.3-1.4.5-2 .5-.7 0-1.2-.1-1.7-.4a3 3 0 01-1.2-1c-.2-.5-.4-1-.4-1.5zm6.3.7c.3-.3.4-.6.4-.9v-1.3a7 7 0 00-2.5-.5c-1 0-1.6.1-2.2.5-.5.3-.8.8-.8 1.4 0 .5.2 1 .6 1.4.4.4 1 .6 1.7.6a4 4 0 001.6-.3 3 3 0 001.2-.9zm13.7 2.2c-.8 0-1.5-.2-2.1-.6-.6-.4-1.1-1-1.5-1.5v5.7h-1.2v-13.2h1.1v1.8a4.3 4.3 0 013.5-2c.6 0 1.2.2 1.8.5.5.2 1 .6 1.4 1l1 1.6.2 1.8c0 .9-.1 1.7-.5 2.4-.4.8-.9 1.4-1.5 1.8-.6.5-1.4.7-2.2.7zm-.4-1.1a3 3 0 001.8-.5 4.2 4.2 0 001.1-5.1c-.3-.6-.7-1-1.2-1.4a3 3 0 00-3.1-.2 4 4 0 00-1.2.8 2 2 0 00-.6 1.2v2.8a4 4 0 001.3 1.7 3 3 0 002 .7zm6-1.8c0-.6.1-1 .5-1.5.3-.4.8-.8 1.3-1 .6-.2 1.3-.4 2.1-.4a8.5 8.5 0 012.7.5v-.8c0-.8-.2-1.4-.7-2-.4-.4-1-.6-1.9-.6a4 4 0 00-1.5.3 7 7 0 00-1.5.8l-.5-.9 1.8-1 1.8-.2c1.2 0 2 .3 2.8 1 .6.6 1 1.5 1 2.7v4.3c0 .3.1.5.4.5v1h-.5c-.3 0-.6 0-.7-.3a1 1 0 01-.3-.5v-.7c-.4.5-1 1-1.6 1.2-.7.3-1.4.5-2 .5-.7 0-1.2-.1-1.7-.4a3 3 0 01-1.2-1l-.3-1.5zm6.2.7c.3-.3.4-.6.4-.9v-1.3a7 7 0 00-2.5-.5c-1 0-1.6.1-2.2.5-.5.3-.8.8-.8 1.4 0 .5.2 1 .6 1.4.4.4 1 .6 1.7.6a4 4 0 001.6-.3 3 3 0 001.2-.9zm7.4 2.2a5 5 0 01-3.9-1.5l.5-1c.6.6 1.1 1 1.6 1.2.6.2 1.1.3 1.7.3.8 0 1.3-.2 1.8-.4.5-.3.7-.8.7-1.3 0-.4-.1-.7-.3-.9l-1-.5a72.6 72.6 0 00-3.1-1c-.4-.1-.8-.4-1-.7a2 2 0 01-.3-1.2c0-.6.1-1 .4-1.5.3-.4.8-.7 1.3-1l1.8-.2a5 5 0 011.9.3c.6.2 1 .5 1.4 1l-.6.8c-.4-.4-.8-.7-1.3-.9a4 4 0 00-2.6 0c-.3 0-.6.2-.8.4-.3.2-.4.6-.4 1 0 .5.2.8.6 1l1.7.6 1.8.6c.6.2 1 .5 1.3.8.3.3.4.7.4 1.3 0 .9-.3 1.6-1 2-.7.5-1.5.8-2.6.8zm9.6-4.9c0-.9.2-1.7.5-2.4.4-.7.9-1.3 1.5-1.8.7-.4 1.4-.6 2.3-.6.7 0 1.4.2 2 .6.7.4 1.2.9 1.5 1.5v-5.7h1.2v11.6c0 .3.2.5.5.5v1h-.6a1 1 0 01-.7-.3 1 1 0 01-.3-.6v-1c-.3.7-.8 1.2-1.5 1.5a4.1 4.1 0 01-3.8.1 4.5 4.5 0 01-2.3-2.5c-.2-.6-.3-1.2-.3-1.9zm7.8 1.5v-3c-.2-.4-.4-.7-.8-1a4 4 0 00-1.1-1l-1.3-.3c-.7 0-1.3.2-1.8.6-.5.4-.9.8-1.2 1.4a4.2 4.2 0 000 3.7c.4.6.8 1 1.3 1.4.6.3 1.2.5 1.8.5a3 3 0 001.3-.3 4 4 0 001.2-.9c.3-.3.5-.7.6-1.1zm3.3-6.2l.3-1.9h-.4v-1.8h1.2v1.8l-.5 2h-.6zm3-2V253h1.2v1.8h-1.2zm0 11.4v-9.4h1.2v9.4h-1.2zm4-13.1h1.1v11c0 .4.1.8.3.9l.6.2h.7l.5-.2.2 1a4.7 4.7 0 01-1.7.3c-.5 0-1-.2-1.3-.5-.3-.3-.5-.7-.5-1.3v-11.4zm4.8 0h1.3v11c0 .4 0 .8.2.9l.6.2h.7l.5-.2.2 1a4.7 4.7 0 01-1.7.3c-.5 0-1-.2-1.3-.5-.3-.3-.5-.7-.5-1.3v-11.4zm4.8 9.2v-5.5h1.2v5.3c0 2.1.7 3.2 2.2 3.2.7 0 1.4-.2 2-.7.6-.5 1.1-1 1.4-1.9v-5.9h1.2v8c0 .2.1.4.4.4v1h-.3-.2a1 1 0 01-.7-.3.8.8 0 01-.2-.6V264a4.4 4.4 0 01-4 2.3c-2 0-3-1.4-3-4zm13.8 4a5 5 0 01-3.9-1.5l.6-.8c.5.5 1 .8 1.6 1 .5.3 1 .4 1.7.4s1.3-.2 1.8-.4c.4-.3.7-.8.7-1.3 0-.4-.2-.7-.4-.9l-1-.5a72.6 72.6 0 00-3-1c-.5-.1-.8-.4-1-.7a2 2 0 01-.4-1.2c0-.6.2-1 .5-1.5.3-.4.7-.7 1.2-1l1.8-.2a5 5 0 012 .3c.5.2 1 .5 1.3 1l-.6.8c-.3-.4-.7-.7-1.2-.9a4 4 0 00-2.6 0c-.4 0-.7.2-.9.4-.2.2-.3.6-.3 1 0 .5.2.8.5 1l1.7.6 1.9.6c.5.2 1 .5 1.2.8.3.3.4.7.4 1.3 0 .9-.3 1.6-1 2-.6.5-1.5.8-2.6.8zm10.2-.6l-.8.4-1.4.2c-.5 0-1-.1-1.3-.4-.4-.3-.6-.8-.6-1.4v-6.7h-1.3v-1h1.3v-3.1h1.2v3.1h2.1v1H276v6.4c0 .3.1.6.4.7.2.2.4.3.7.3.4 0 .7 0 1-.2l.4-.2.4 1zm6.2-7.8a4 4 0 00-2.2.7c-.6.4-1 1-1.3 1.8v5.8h-1.2v-9.4h1.2v2.3c.3-.7.7-1.2 1.2-1.6a3.2 3.2 0 012.3-.7v1.1zm.8 5.6c0-.6.2-1 .5-1.5.4-.4.8-.8 1.4-1 .6-.2 1.3-.4 2-.4a8.5 8.5 0 012.8.5v-.8c0-.8-.2-1.4-.7-2-.5-.4-1.1-.6-2-.6a4 4 0 00-1.4.3 7 7 0 00-1.5.8l-.5-.9 1.8-1 1.8-.2c1.1 0 2 .3 2.7 1 .7.6 1 1.5 1 2.7v4.3c0 .3.2.5.5.5v1h-.6c-.3 0-.5 0-.7-.3a1 1 0 01-.2-.5v-.7c-.4.5-1 1-1.7 1.2-.6.3-1.3.5-2 .5-.6 0-1.2-.1-1.7-.4a3 3 0 01-1-1c-.3-.5-.5-1-.5-1.5zm6.3.7c.3-.3.4-.6.4-.9v-1.3a7 7 0 00-2.6-.5c-.9 0-1.6.1-2.1.5-.5.3-.8.8-.8 1.4 0 .5.2 1 .6 1.4.4.4 1 .6 1.7.6a4 4 0 001.6-.3 3 3 0 001.2-.9zm8.7 1.6l-.8.3-1.3.2c-.5 0-1-.1-1.4-.4-.4-.3-.6-.8-.6-1.4v-6.7h-1.3v-1h1.3v-3.1h1.2v3.1h2.2v1H298v6.4c0 .3.2.6.4.7.2.2.5.3.8.3.3 0 .6 0 .9-.2l.5-.2.3 1zm1.5-11V253h1.3v1.8h-1.3zm0 11.4v-9.4h1.3v9.4h-1.3zm8 .2a4.4 4.4 0 01-4-2.4 5 5 0 01-.7-2.5 5 5 0 012.3-4.2c.7-.4 1.5-.6 2.4-.6.9 0 1.7.2 2.4.6.7.5 1.2 1 1.6 1.8a5 5 0 010 4.8 4.4 4.4 0 01-4 2.4zm-3.4-4.8c0 .7.1 1.3.4 1.9.3.5.7 1 1.2 1.3a3.2 3.2 0 003.5 0c.5-.3.9-.8 1.2-1.4a4 4 0 00.5-1.9 4 4 0 00-1.7-3.3 3 3 0 00-3.4 0c-.6.4-1 .9-1.3 1.4a4 4 0 00-.4 2zm18 4.6h-1.3v-5.2c0-1.1-.1-2-.5-2.4-.3-.6-.8-.8-1.5-.8a3 3 0 00-1.4.3 4 4 0 00-1.3 1c-.3.4-.6.8-.7 1.4v5.7H317v-9.4h1v2.1c.5-.6 1-1.2 1.7-1.6.7-.4 1.5-.6 2.4-.6.7 0 1.2.1 1.6.5.4.3.7.8.9 1.4.2.6.3 1.3.3 2.1v5.5zm6.4-2.7c0-.6.2-1 .5-1.5.3-.4.8-.8 1.4-1 .6-.2 1.3-.4 2-.4a8.5 8.5 0 012.8.5v-.8c0-.8-.2-1.4-.7-2-.5-.4-1.1-.6-2-.6a4 4 0 00-1.4.3 7 7 0 00-1.6.8l-.4-.9 1.8-1 1.8-.2c1.1 0 2 .3 2.7 1 .7.6 1 1.5 1 2.7v4.3c0 .3.2.5.5.5v1h-.6c-.3 0-.5 0-.7-.3a1 1 0 01-.2-.5v-.7c-.5.5-1 1-1.7 1.2-.7.3-1.3.5-2 .5s-1.2-.1-1.7-.4a3 3 0 01-1.1-1c-.3-.5-.4-1-.4-1.5zm6.3.7c.3-.3.4-.6.4-.9v-1.3a7 7 0 00-2.6-.5c-.9 0-1.6.1-2.1.5-.6.3-.8.8-.8 1.4 0 .5.2 1 .6 1.4.4.4 1 .6 1.6.6a4 4 0 001.7-.3 3 3 0 001.2-.9zm7.3 2.2a5 5 0 01-3.9-1.5l.6-1c.5.6 1 1 1.6 1.2.5.2 1 .3 1.7.3s1.3-.2 1.7-.4c.5-.3.7-.8.7-1.3 0-.4 0-.7-.3-.9l-1-.5a72.6 72.6 0 00-3-1c-.5-.1-.8-.4-1-.7a2 2 0 01-.4-1.2c0-.6.2-1 .5-1.5.3-.4.7-.7 1.2-1l1.8-.2a5 5 0 012 .3c.5.2 1 .5 1.3 1l-.6.8c-.3-.4-.7-.7-1.2-.9a4 4 0 00-2.6 0c-.4 0-.7.2-.9.4-.2.2-.3.6-.3 1 0 .5.2.8.5 1l1.7.6 1.9.6c.5.2 1 .5 1.2.8.3.3.4.7.4 1.3 0 .9-.3 1.6-1 2-.6.5-1.5.8-2.6.8zm8.7 0a5 5 0 01-3.9-1.5l.6-1c.5.6 1 1 1.6 1.2.5.2 1 .3 1.7.3s1.3-.2 1.7-.4c.5-.3.7-.8.7-1.3 0-.4 0-.7-.3-.9l-1-.5a72.6 72.6 0 00-3-1c-.5-.1-.8-.4-1-.7a2 2 0 01-.4-1.2c0-.6.2-1 .5-1.5.3-.4.7-.7 1.2-1l1.8-.2a5 5 0 012 .3c.5.2 1 .5 1.3 1l-.6.8c-.3-.4-.7-.7-1.2-.9a4 4 0 00-2.6 0c-.4 0-.7.2-.9.4-.2.2-.3.6-.3 1 0 .5.2.8.5 1l1.7.6 1.9.6c.5.2 1 .5 1.2.8.3.3.4.7.4 1.3 0 .9-.3 1.6-1 2-.6.5-1.5.8-2.6.8zm9.7 0a4.4 4.4 0 01-4-2.4 5 5 0 01-.7-2.5 5 5 0 012.3-4.2c.7-.4 1.5-.6 2.4-.6.9 0 1.7.2 2.4.6.7.5 1.2 1 1.6 1.8a5 5 0 010 4.8 4.4 4.4 0 01-4 2.4zm-3.4-4.8c0 .7.1 1.3.4 1.9.3.5.7 1 1.2 1.3a3.2 3.2 0 003.5 0c.5-.3.9-.8 1.2-1.4a4 4 0 00.5-1.9 4 4 0 00-1.7-3.3 3 3 0 00-3.4 0c-.6.4-1 .9-1.3 1.4a4 4 0 00-.4 2zm14.1 4.8c-.9 0-1.7-.2-2.4-.7a5 5 0 01-2.3-4.2c0-.9.2-1.7.6-2.4a4.5 4.5 0 014.1-2.4c.9 0 1.7.2 2.3.6.7.4 1.2 1 1.5 1.6l-1.2.4c-.2-.5-.6-.9-1-1.1a3 3 0 00-1.6-.5c-.7 0-1.3.2-1.8.5a4 4 0 00-1.7 3.3 4 4 0 001.8 3.3c.5.3 1 .5 1.7.5a3.4 3.4 0 002.2-.8l.5-.8 1.2.4c-.1.4-.4.8-.8 1.2a4.3 4.3 0 01-3 1zm5.8-11.5v-1.8h1.3v1.8h-1.3zm0 11.3v-9.4h1.3v9.4h-1.3zm8 .2c-.9 0-1.7-.2-2.4-.7a5 5 0 01-2.3-4.2 4.7 4.7 0 017.1-4.2c.7.5 1.3 1 1.6 1.8a4.8 4.8 0 01.6 2.9h-8c0 .6.2 1.2.6 1.8.3.5.7.9 1.2 1.2.5.3 1 .4 1.7.4.6 0 1.2-.1 1.7-.4.5-.3 1-.7 1.1-1.2l1.1.2c-.2.5-.5.9-.9 1.3a4.6 4.6 0 01-3 1zm-3.4-5.3h6.9a3.8 3.8 0 00-1.8-3 3.2 3.2 0 00-3.3 0c-.6.3-1 .7-1.3 1.2a4 4 0 00-.5 1.8zm3.8-6l-.8-.4 1-1.6h1.3l-1.5 2zm10.2 11.3c-1 0-1.7-.2-2.4-.7a5 5 0 01-2.3-4.2 4.7 4.7 0 017.1-4.2c.7.5 1.2 1 1.6 1.8a4.8 4.8 0 01.6 2.9h-8c0 .6.2 1.2.5 1.8.4.5.8.9 1.3 1.2.5.3 1 .4 1.6.4.6 0 1.2-.1 1.8-.4.5-.3.9-.7 1.1-1.2l1 .2c-.1.5-.4.9-.8 1.3a4.6 4.6 0 01-3.1 1zm-3.5-5.3h7a3.8 3.8 0 00-1.8-3c-.6-.3-1.1-.5-1.7-.5-.6 0-1.2.2-1.7.5s-1 .7-1.2 1.2a4 4 0 00-.6 1.8zm13.8 2.4c0-.6.2-1 .5-1.5.4-.4.8-.8 1.4-1 .6-.2 1.3-.4 2-.4a8.5 8.5 0 012.8.5v-.8c0-.8-.2-1.4-.7-2-.4-.4-1.1-.6-2-.6a4 4 0 00-1.4.3 7 7 0 00-1.5.8l-.5-.9 1.8-1 1.8-.2c1.2 0 2 .3 2.7 1 .7.6 1 1.5 1 2.7v4.3c0 .3.2.5.5.5v1h-.6c-.3 0-.5 0-.6-.3a1 1 0 01-.3-.5v-.7c-.4.5-1 1-1.7 1.2-.6.3-1.3.5-2 .5-.6 0-1.2-.1-1.6-.4a3 3 0 01-1.2-1c-.2-.5-.4-1-.4-1.5zm6.3.7c.3-.3.4-.6.4-.9v-1.3a7 7 0 00-2.6-.5c-.8 0-1.6.1-2.1.5-.5.3-.8.8-.8 1.4 0 .5.2 1 .6 1.4.4.4 1 .6 1.7.6a4 4 0 001.6-.3 3 3 0 001.2-.9zm-3.8-11.2h1.3l1 1.7-.7.3-1.6-2zm16.7 13.4c-.9 0-1.7-.2-2.4-.7a5 5 0 01-2.3-4.2c0-.9.2-1.7.6-2.4a4.5 4.5 0 014.1-2.4c.9 0 1.7.2 2.3.6.7.4 1.2 1 1.5 1.6l-1.1.4c-.3-.5-.7-.9-1.2-1.1a3 3 0 00-1.5-.5c-.7 0-1.2.2-1.8.5a4 4 0 00-1.7 3.3 4 4 0 001.8 3.3c.5.3 1 .5 1.7.5a3.4 3.4 0 002.2-.8l.5-.8 1.2.4c-.1.4-.4.8-.8 1.2a4.3 4.3 0 01-3 1zm9.8 0c-.9 0-1.7-.2-2.4-.7a5 5 0 01-2.3-4.2 4.7 4.7 0 017.1-4.2 4.8 4.8 0 012.2 4.6h-8c0 .7.3 1.3.6 1.9.3.5.7.9 1.2 1.2.5.3 1 .4 1.7.4.6 0 1.2-.1 1.7-.4.5-.3 1-.7 1.2-1.2l1 .2c-.2.5-.5.9-.9 1.3a4.6 4.6 0 01-3 1zm-3.4-5.3h6.9a3.8 3.8 0 00-1.8-3 3.2 3.2 0 00-3.3 0c-.6.3-1 .7-1.3 1.2a4 4 0 00-.5 1.8zm14.3 4.7l-.7.3-1.4.2c-.5 0-1-.1-1.4-.4-.4-.3-.6-.8-.6-1.4v-6.7h-1.3v-1h1.3v-3.1h1.3v3.1h2.1v1H446v6.4c0 .3.1.6.3.7.3.2.5.3.8.3.3 0 .6 0 .9-.2l.5-.2.3 1zm6 0l-.7.3-1.4.2c-.5 0-1-.1-1.3-.4-.4-.3-.6-.8-.6-1.4v-6.7h-1.3v-1h1.3v-3.1h1.2v3.1h2.2v1h-2.2v6.4c0 .3.1.6.4.7.2.2.4.3.7.3.4 0 .7 0 1-.2l.4-.2.4 1zm5.5.6c-.9 0-1.7-.2-2.4-.7a5 5 0 01-2.3-4.2 4.7 4.7 0 017.1-4.2c.7.5 1.2 1 1.6 1.8a4.8 4.8 0 01.6 2.9h-8c0 .6.2 1.2.6 1.8.3.5.7.9 1.2 1.2.5.3 1 .4 1.6.4.7 0 1.2-.1 1.8-.4.5-.3.9-.7 1.1-1.2l1 .2c-.1.5-.4.9-.8 1.3a4.6 4.6 0 01-3.1 1zm-3.5-5.3h7a3.8 3.8 0 00-1.8-3 3.2 3.2 0 00-3.3 0c-.6.3-1 .7-1.3 1.2a4 4 0 00-.6 1.8zm18.6 5.3c-.9 0-1.7-.2-2.4-.7-.7-.4-1.2-1-1.6-1.8a5 5 0 01-.7-2.4 4.7 4.7 0 017.1-4.2c.8.5 1.3 1 1.7 1.8a4.8 4.8 0 01.6 2.9h-8c0 .6.2 1.2.5 1.8.3.5.7.9 1.2 1.2.5.3 1.1.4 1.7.4.6 0 1.2-.1 1.7-.4.6-.3 1-.7 1.2-1.2l1 .2c-.1.5-.4.9-.9 1.3a4.6 4.6 0 01-3 1zm-3.4-5.3h7a3.8 3.8 0 00-1.9-3 3.2 3.2 0 00-3.3 0c-.5.3-1 .7-1.3 1.2a4 4 0 00-.5 1.8zm13 5.3a5 5 0 01-3.9-1.5l.6-1c.5.6 1 1 1.6 1.2.5.2 1 .3 1.7.3s1.3-.2 1.8-.4c.4-.3.7-.8.7-1.3 0-.4-.2-.7-.4-.9l-1-.5a72.6 72.6 0 00-3-1c-.5-.1-.8-.4-1-.7a2 2 0 01-.4-1.2c0-.6.2-1 .5-1.5.3-.4.7-.7 1.2-1l1.8-.2a5 5 0 012 .3c.5.2 1 .5 1.3 1l-.6.8c-.3-.4-.7-.7-1.2-.9a4 4 0 00-2.6 0c-.4 0-.7.2-.9.4-.2.2-.3.6-.3 1 0 .5.2.8.5 1l1.7.6 1.9.6c.5.2 1 .5 1.2.8.3.3.4.7.4 1.3 0 .9-.3 1.6-1 2-.6.5-1.5.8-2.6.8zm10.5 0c-.8 0-1.5-.2-2.2-.6-.6-.4-1-1-1.4-1.5v5.7h-1.2v-13.2h1v1.8a4.3 4.3 0 013.6-2c.6 0 1.2.2 1.7.5.6.2 1 .6 1.4 1 .4.5.8 1 1 1.6l.3 1.8c0 .9-.2 1.7-.5 2.4-.4.8-.9 1.4-1.5 1.8-.7.5-1.4.7-2.2.7zm-.4-1.1a3 3 0 001.8-.5c.5-.4.9-.9 1.1-1.5a4.2 4.2 0 000-3.7c-.3-.5-.7-1-1.3-1.3a3 3 0 00-3-.2 4 4 0 00-1.2.8 2 2 0 00-.6 1.2v2.8a4 4 0 001.3 1.7 3 3 0 002 .7zm10.7 1c-.9 0-1.7-.1-2.4-.6a5 5 0 01-2.3-4.2 4.7 4.7 0 017.1-4.2 4.8 4.8 0 012.2 4.6h-8c0 .7.3 1.3.6 1.9.3.5.7.9 1.2 1.2.5.3 1 .4 1.7.4.6 0 1.2-.1 1.7-.4.5-.3 1-.7 1.2-1.2l1 .2c-.2.5-.5.9-.9 1.3a4.6 4.6 0 01-3 1zm-3.4-5.2h6.9a3.8 3.8 0 00-1.8-3 3.2 3.2 0 00-3.3 0c-.6.3-1 .7-1.3 1.2a4 4 0 00-.5 1.8zm1.7-8h1.3l1 1.6-.7.3-1.6-2zm12.3 13.3c-1 0-1.7-.2-2.4-.7a5 5 0 01-2.3-4.2c0-.9.2-1.7.6-2.4a4.5 4.5 0 014-2.4c1 0 1.7.2 2.4.6.7.4 1.2 1 1.5 1.6l-1.2.4c-.2-.5-.6-.9-1.1-1.1a3 3 0 00-1.6-.5c-.6 0-1.2.2-1.7.5-.5.4-1 .8-1.2 1.4a4 4 0 00-.5 1.9 4 4 0 001.7 3.3c.6.3 1.1.5 1.8.5a3.4 3.4 0 002.1-.8c.3-.2.5-.5.6-.8l1.2.4-.8 1.2a4.3 4.3 0 01-3.1 1zm9.8 0c-1 0-1.7-.2-2.4-.7a5 5 0 01-2.3-4.2 4.7 4.7 0 017.1-4.2c.7.5 1.2 1 1.6 1.8a4.8 4.8 0 01.6 2.9h-8c0 .6.2 1.2.5 1.8.4.5.8.9 1.3 1.2.5.3 1 .4 1.6.4.6 0 1.2-.1 1.8-.4.5-.3.9-.7 1.1-1.2l1 .2c-.1.5-.4.9-.8 1.3a4.6 4.6 0 01-3.1 1zm-3.5-5.3h7a3.8 3.8 0 00-1.8-3c-.6-.3-1.1-.5-1.7-.5-.6 0-1.2.2-1.7.5s-1 .7-1.2 1.2a4 4 0 00-.6 1.8zm9.8 5.1v-1.8h1v1.8h-1z" fill="#000"/><path d="M280.2 69.6c-14 .5-23.7-9.6-36.2-9.6-12.5 0-39 48.2-39 53.4 0 18.2 19 13.1 27.8 30.9 5.6 11.2 16.8 16.8 19.5 16.8l36.2-47.7-8.3-43.8z" fill="#fff"/><path d="M235 143.2l-1.8.9 1.9-1a34.8 34.8 0 00-16.8-15.5l-1.5-.8c-2.9-1.6-5.2-3-6.7-5a12.6 12.6 0 01-2.6-8.4s0 0 0 0l.2-.7.8-2.1a213.9 213.9 0 0113.4-24.4c4-6.4 8.4-12.4 12.5-16.9 2.1-2.2 4-4 5.7-5.2 1.8-1.2 3-1.6 3.9-1.6 5.4 0 10.4 2.1 16 4.5l.6.3A48.7 48.7 0 00278 72l7.8 40.7-34.6 45.6-1.4-.6a33 33 0 01-14.9-14.6z" stroke="#33375F" stroke-opacity=".5" stroke-width="5"/><path d="M319.8 69.6c14 .5 23.7-9.6 36.2-9.6 12.5 0 39 48.2 39 53.4 0 18.2-19 13.1-27.8 30.9-5.6 11.2-16.8 16.8-19.5 16.8l-36.2-47.7 8.3-43.8z" fill="#fff"/><path d="M321.9 72.1c6.6-.2 12.3-2.6 17.5-4.8l.6-.3c5.6-2.4 10.6-4.5 16-4.5.8 0 2.1.4 3.9 1.6a36 36 0 015.7 5.2c4 4.5 8.5 10.5 12.5 16.8a214 214 0 0113.4 24.5 25.8 25.8 0 011 2.8s0 0 0 0c0 4-1 6.6-2.6 8.4-1.5 2-3.8 3.4-6.7 5l-1.5.8c-5.5 3-12.4 6.7-16.8 15.6l2.3 1-2.3-1a33 33 0 01-16.2 15.2l-34.6-45.7 7.8-40.6z" stroke="#33375F" stroke-opacity=".5" stroke-width="5"/><path d="M321.7 139.8l-8.8 9.5c8.6 12.4 11 22 11.6 27.2.1 1.3 1.7 1.5 2 .3 2.8-10.4-2.7-32-4.8-37z" fill="#fff"/><path d="M324.7 166.5a73.5 73.5 0 00-8.6-17l4.5-4.9a117.7 117.7 0 014 21.9z" stroke="#33375F" stroke-opacity=".5" stroke-width="5"/><path d="M271.1 176.6c.6-4.5 3-13.1 11.6-24l-8.8-8.4c-2 4.4-7.6 23.5-4.9 32.6.4 1.1 2 1 2.1-.2z" fill="#fff"/><path d="M275 148.6l4.3 4.2a62.4 62.4 0 00-8.4 14.8 93.6 93.6 0 014-19zM283.6 112.3v34.5a37 37 0 01-11-20.7 67.9 67.9 0 01-1.4-13.8h12.4zM326.8 107.9a67.2 67.2 0 01-1.5 13.9 37 37 0 01-11 20.7v-34.6h12.5z" stroke="#33375F" stroke-opacity=".5" stroke-width="5"/><path d="M337.7 95.3c0-5.7 2.8-31-39-31s-39 25.3-39 31c0 5.6 14 5.6 16.7 12.6v19.6c0 3.1-2.8 18.3-2.8 18.3l11.4 11.5c1.5 21.5 2.7 57.3 8.1 67.2 3.7 6.6 13.1 9 25-2.8a51.5 51.5 0 009.7-14c.8-1.6.2-3.6-1.5-4.4a3.3 3.3 0 00-4.1 1c-3.3 4.7-10.6 14.5-12.4 11.7-1.5-2.4 1.7-46.7 2.6-58.7l11.4-11.5s-2.8-15.2-2.8-18.3v-19.6c2.8-7 16.7-7 16.7-12.6z" fill="#fff"/><path d="M279 107.9v-.5l-.3-.4c-1-2.5-2.8-4.1-4.7-5.4-2-1.2-4.1-2-6-2.9a29 29 0 01-4.7-2.2c-1-.7-1-1-1-1.2l-.1-1.1a26 26 0 013.4-15.1c4-6.1 12.7-12.2 33-12.2 20.5 0 29.2 6.1 33.1 12.2 3.7 5.6 3.6 11.7 3.5 15v1.2c0 .1 0 .5-1.1 1.2-1.1.8-2.7 1.4-4.7 2.2-1.9.8-4 1.7-6 3-2 1.2-3.8 2.8-4.8 5.3l-.1.4v.5h2.5-2.5V127.5l.4 4.5a258.9 258.9 0 002 11.8l.2 1.2-10.5 10.5-.6.7-.1.9a1940.3 1940.3 0 00-3 50.4 107 107 0 00.4 8.8c0 .2.1.7.4 1a3.5 3.5 0 003 1.7c1.1 0 2-.4 2.6-.8a20 20 0 004-3.5c2.5-2.8 5.3-6.6 6.9-9 .2-.2.6-.4 1-.2s.6.7.4 1.1a49 49 0 01-9.2 13.3l1.7 1.7-1.7-1.7c-5.7 5.6-10.5 7.6-13.9 7.6a7.8 7.8 0 01-7.2-4.2c-1.1-2-2.1-5.8-3-10.9-1-5-1.6-11-2.2-17.4-.8-8.4-1.3-17.4-1.8-25.6l-.8-12.3v-1l-.7-.6-10.5-10.5a254.5 254.5 0 002.6-17.5v0-.1 0-.1 0-.1 0-.1 0-.1 0-.1 0-.1 0-.1 0-.1 0-.1 0-.1 0-.1 0-.1 0-.1 0-.1 0-.1 0-.1 0-.1 0-.1 0-.1 0-.1 0-.1 0-.1 0-.1 0-.1 0-.1 0-.1 0-.1 0-.1 0-.1 0-.1 0-.1 0-.1 0-.1 0-.1 0-.1 0-.1 0-.1 0-.1 0-.1 0-.1 0-.1 0-.1 0-.1 0-.1 0-.1 0-.1 0-.1 0-.1 0-.1 0-.1 0-.1 0-.1 0-.1 0-.1 0-.1 0-.1 0-.1 0-.1 0-.1 0-.1 0-.1 0-.1 0-.1 0-.2 0-.1 0-.1 0-.1 0-.1 0-.1 0-.1 0-.1 0-.1 0-.1 0-.1 0-.1 0-.2 0-.1 0-.1 0-.1 0-.1 0-.1 0-.1 0-.1 0-.2 0-.1 0-.1 0-.1 0-.1 0-.1 0-.1 0-.2 0-.1 0-.1 0-.1 0-.1 0-.1 0-.1 0-.1 0-.2 0-.1 0-.1 0-.1 0-.1 0-.1 0-.1 0-.1 0-.2 0-.1 0-.1 0-.1 0-.1 0-.1 0-.1 0-.1 0-.1 0-.1 0-.1 0-.1 0-.1 0-.2 0-.1 0-.1 0-.1 0-.1 0-.1 0-.1 0-.1 0-.1 0-.1 0-.1 0-.1 0-.1 0-.1 0-.1 0-.1 0-.1 0-.1 0-.1 0-.1 0-.1 0-.1 0-.1 0-.1 0-.1 0-.1 0-.1 0-.1 0-.1 0-.1 0-.1 0-.1 0-.1 0-.1 0-.1 0-.1 0-.1 0-.1 0-.1 0-.1 0-.1 0-.1 0-.1 0-.1 0-.1 0-.1 0-.1 0-.1 0-.1 0-.1 0-.1 0-.1 0-.1 0-.1 0-.1 0-.1 0-.1 0-.1 0-.1 0-.1 0-.1 0-.1 0-.1 0-.1 0-.1 0-.1 0-.1 0-.1 0-.1 0h-2.5 2.5z" stroke="#33375F" stroke-opacity=".5" stroke-width="5"/><path fill-rule="evenodd" clip-rule="evenodd" d="M299 97.9l-26.3-7.4-9.9 4.7-6 9.3 6 9.5 9.9 5.2 26.4-7.8V97.9zm-25.4 12.6c4.6 0 8.2-2.5 8.2-5.7 0-3-3.6-5.6-8.2-5.6-4.5 0-8.2 2.5-8.2 5.6 0 3.2 3.7 5.7 8.2 5.7z" fill="#33375F"/><path fill-rule="evenodd" clip-rule="evenodd" d="M299 111.4l26.5 7.8 9.8-4.7 6-9.3-6-9.5-9.8-5.2-26.4 7.3v13.6zm25.6-12.2c-4.6 0-8.2 2.5-8.2 5.6 0 3.2 3.6 5.7 8.2 5.7 4.5 0 8.2-2.5 8.2-5.7 0-3-3.7-5.6-8.2-5.6z" fill="#33375F"/><ellipse cx="324.4" cy="104.3" rx="8.6" ry="6.5" transform="rotate(-180 324.4 104.3)" fill="#33375F"/><ellipse cx="273.3" cy="104.3" rx="9.4" ry="6.5" transform="rotate(-180 273.3 104.3)" fill="#33375F"/><path d="M321.4 109c2.3 0 4.2-1.8 4.2-4.1 0-2.4-1.9-4.3-4.2-4.3a4.2 4.2 0 00-4.2 4.3c0 2.3 1.9 4.2 4.2 4.2z" fill="#fff"/><path d="M323 104.9c0 1-.7 1.7-1.6 1.7-1 0-1.7-.8-1.7-1.7 0-1 .8-1.8 1.7-1.8.9 0 1.7.8 1.7 1.8z" stroke="#33375F" stroke-opacity=".5" stroke-width="5"/><path d="M275.4 109c2.3 0 4.1-1.8 4.1-4.1 0-2.4-1.8-4.3-4.1-4.3a4.2 4.2 0 00-4.2 4.3c0 2.3 1.9 4.2 4.2 4.2z" fill="#fff"/><path d="M277 104.9c0 1-.7 1.7-1.6 1.7-1 0-1.7-.8-1.7-1.7 0-1 .8-1.8 1.7-1.8.9 0 1.6.8 1.6 1.8z" stroke="#33375F" stroke-opacity=".5" stroke-width="5"/></svg>